<svg xmlns="http://www.w3.org/2000/svg" width="9.077" height="11.336" viewBox="0 0 9.077 11.336">
  <defs>
    <style>
      .cls-1 {
        fill: #e8e5d6;
      }
    </style>
  </defs>
  <g id="Group_2" data-name="Group 2" transform="translate(-191.648 -400.01)">
    <path id="Path_23" data-name="Path 23" class="cls-1" d="M65.62,7.06a1,1,0,1,0-1-1,1,1,0,0,0,1,1" transform="translate(129.14 394.95)"/>
    <path id="Path_24" data-name="Path 24" class="cls-1" d="M71.48,13.93l-1.73-3a.49.49,0,0,0-.52-.24H66.77V9.93h1.85a.46.46,0,0,0,0-.92H66.69V8.17a.961.961,0,1,0-1.92.07l.13,3a1,1,0,0,0,1,.93h3.26L70.5,14.5a.58.58,0,0,0,.79.22.59.59,0,0,0,.22-.8" transform="translate(129.14 394.95)"/>
    <path id="Path_25" data-name="Path 25" class="cls-1" d="M66.24,15.63a3,3,0,0,1-1.92-5.21v-1a3.76,3.76,0,1,0,5.39,4.73l-.54-.93a3,3,0,0,1-2.9,2.38" transform="translate(129.14 394.95)"/>
  </g>
</svg>
