<svg xmlns="http://www.w3.org/2000/svg" width="189" height="35" viewBox="0 0 189 35"><g><g><g><path fill="#fff" d="M127.145 24.896V1.086h2.41v24.176c0 4.903 2.365 7.388 7.03 7.388 4.47 0 7.03-2.693 7.03-7.388V1.086h2.408v23.81c0 6.204-3.44 9.76-9.438 9.76-6.263 0-9.44-3.283-9.44-9.76z"/></g><g><path fill="#fff" d="M124.625 31.923h-16.903l16.687-28.58.032-.052V1.085h-18.32v2.187h15.744l-16.72 28.632v2.205h19.48z"/></g><g><path fill="#fff" d="M102.66 31.923H85.754l16.72-28.632V1.085h-18.32v2.187H99.9L83.178 31.904v2.205h19.482z"/></g><g><path fill="#fff" d="M72.91 32.65c-5.926 0-8.569-4.64-8.569-15.052 0-9.988 2.884-15.053 8.569-15.053 5.811 0 8.519 4.782 8.519 15.053 0 10.412-2.628 15.051-8.52 15.051zm0-32.11c-7.283 0-10.977 5.738-10.977 17.058 0 11.477 3.59 17.058 10.977 17.058 4.983 0 10.926-2.958 10.926-17.058C83.836 5.959 80.362.539 72.91.539z"/></g><g><path fill="#fff" d="M177.284 32.65c-5.923 0-8.566-4.64-8.566-15.052 0-9.988 2.886-15.053 8.566-15.053 5.814 0 8.521 4.782 8.521 15.053 0 10.412-2.623 15.051-8.52 15.051zm0-32.11c-7.28 0-10.972 5.738-10.972 17.058 0 11.477 3.588 17.058 10.972 17.058 4.988 0 10.929-2.958 10.929-17.058 0-11.639-3.472-17.059-10.929-17.059z"/></g><g><path fill="#fff" d="M156.451 34.109h2.406V3.272h8.843V1.085H147.61v2.187h8.84z"/></g><g><path fill="#fff" d="M43.143 32.106V17.822h6.304c5.58 0 8.179 2.28 8.179 7.165 0 4.991-2.417 7.12-8.085 7.12zm0-29.015h7.055c4.273 0 6.35 2.074 6.35 6.34 0 5.56-4.51 6.39-7.196 6.39h-6.209zm10.584 13.652c3.352-.842 5.247-3.45 5.247-7.312 0-5.615-2.948-8.345-9.012-8.345h-9.245V34.11h9.529c6.047 0 9.808-3.479 9.808-9.078 0-4.47-2.394-7.554-6.327-8.29z"/></g><g><path fill="#fff" d="M30.842 22.72H18.894l5.974-10.245L18.57 1.67 0 33.524h37.142z"/></g></g></g></svg>