<svg xmlns="http://www.w3.org/2000/svg" width="11.87" height="11.34" viewBox="0 0 11.87 11.34">
  <defs>
    <style>
      .cls-1 {
        fill: #e8e5d6;
      }
    </style>
  </defs>
  <g id="Group_1" data-name="Group 1" transform="translate(-162 -402)">
    <path id="Path_1" data-name="Path 1" class="cls-1" d="M.72,9.11v.88h.66V9.83H.9V9.6h.42V9.45H.9V9.27h.46V9.11Z" transform="translate(162 402)"/>
    <path id="Path_2" data-name="Path 2" class="cls-1" d="M48.56,14.6c0-.25.14-.31.24-.31s.24.06.24.31a.49.49,0,0,1,0,.19l-.1-.09-.09.1.09.08a.18.18,0,0,1-.1,0c-.1,0-.24-.06-.24-.3M49,15l.11.1.09-.1-.09-.09a.52.52,0,0,0,.09-.31.41.41,0,0,0-.42-.46.46.46,0,0,0,0,.92A.43.43,0,0,0,49,15" transform="translate(115.14 396.95)"/>
    <path id="Path_3" data-name="Path 3" class="cls-1" d="M50.08,14.73v-.57h-.19v.58c0,.1,0,.16-.17.16a.15.15,0,0,1-.16-.17v-.57h-.18v.58a.33.33,0,0,0,.06.21.37.37,0,0,0,.28.11c.22,0,.36-.1.36-.33" transform="translate(115.14 396.95)"/>
    <path id="Path_4" data-name="Path 4" class="cls-1" d="M50.57,14.36h0l.11.34h-.22Zm-.1-.2-.31.88h.19l.06-.19h.32l.06.19H51l-.31-.88Z" transform="translate(115.14 396.95)"/>
    <path id="Path_5" data-name="Path 5" class="cls-1" d="M4.27,9.11v.87h.61V9.83H4.45V9.11Z" transform="translate(162 402)"/>
    <path id="Path_6" data-name="Path 6" class="cls-1" d="M5.92,9.11v.33H5.58V9.11H5.39v.87h.19V9.59h.34v.39H6.1V9.11Z" transform="translate(162 402)"/>
    <path id="Path_7" data-name="Path 7" class="cls-1" d="M53.55,14.9c-.1,0-.24-.06-.24-.3s.14-.31.24-.31.24.06.24.31-.14.3-.24.3m.42-.3a.42.42,0,1,0-.42.46A.41.41,0,0,0,54,14.6" transform="translate(115.14 396.95)"/>
    <path id="Path_8" data-name="Path 8" class="cls-1" d="M54.84,14.16h-.18v.58c0,.1-.06.16-.18.16a.15.15,0,0,1-.16-.17v-.57h-.18v.58a.33.33,0,0,0,.06.21.37.37,0,0,0,.28.11c.22,0,.36-.1.36-.33Z" transform="translate(115.14 396.95)"/>
    <path id="Path_9" data-name="Path 9" class="cls-1" d="M55.49,14.54h-.21a.1.1,0,0,1-.1-.1c0-.1.09-.1.16-.1a.254.254,0,0,1,.18.13h.17c0-.11-.07-.28-.34-.28s-.34.17-.34.27.14.22.28.25h.1c.09,0,.15,0,.15.1s-.09.12-.18.12a.2.2,0,0,1-.18-.14H55c0,.1.06.29.37.29.08,0,.35,0,.35-.29s-.11-.2-.23-.23" transform="translate(115.14 396.95)"/>
    <rect id="Rectangle_1" data-name="Rectangle 1" class="cls-1" width="0.18" height="0.88" transform="translate(171.01 411.11)"/>
    <path id="Path_10" data-name="Path 10" class="cls-1" d="M9.92,9.11v.61H9.91l-.34-.61H9.38v.87h.17V9.36h0l.36.62h.18V9.11Z" transform="translate(162 402)"/>
    <path id="Path_11" data-name="Path 11" class="cls-1" d="M57.55,14.29a.19.19,0,0,1,.19.14h.18c0-.12-.11-.29-.38-.29a.42.42,0,0,0-.43.46.41.41,0,0,0,.4.46.35.35,0,0,0,.28-.13v.11h.12v-.48h-.37v.15h.21a.22.22,0,0,1-.22.19c-.12,0-.25-.06-.25-.3s.12-.31.25-.31" transform="translate(115.14 396.95)"/>
    <path id="Path_12" data-name="Path 12" class="cls-1" d="M48,16.23c-.09,0-.23-.06-.23-.3s.14-.31.23-.31.24.06.24.31-.14.3-.24.3m0-.76a.46.46,0,1,0,.46.46.46.46,0,0,0-.46-.46" transform="translate(115.14 396.95)"/>
    <path id="Path_13" data-name="Path 13" class="cls-1" d="M49.05,15.9h-.17v-.26H49c.11,0,.16,0,.16.12s0,.14-.14.14m.05-.41h-.4v.88h.18v-.32h.21a.27.27,0,0,0,.28-.28.25.25,0,0,0-.27-.28" transform="translate(115.14 396.95)"/>
    <path id="Path_14" data-name="Path 14" class="cls-1" d="M50,15.9h-.17v-.26H50c.12,0,.16,0,.16.12a.12.12,0,0,1-.13.14m0-.41h-.39v.88h.18v-.32h.21a.27.27,0,0,0,.28-.28.26.26,0,0,0-.28-.28" transform="translate(115.14 396.95)"/>
    <path id="Path_15" data-name="Path 15" class="cls-1" d="M51.05,16.23c-.1,0-.24-.06-.24-.3s.14-.31.24-.31.24.06.24.31-.14.3-.24.3m0-.76a.46.46,0,1,0,.42.46.41.41,0,0,0-.42-.46" transform="translate(115.14 396.95)"/>
    <path id="Path_16" data-name="Path 16" class="cls-1" d="M52.18,15.88H52v-.24h.22c.11,0,.13.07.13.12s0,.12-.14.12m.19.07a.22.22,0,0,0,.14-.21.25.25,0,0,0-.28-.25h-.44v.88H52V16h.19c.13,0,.14.05.14.17a.74.74,0,0,0,0,.18h.2v-.17c0-.17,0-.19-.11-.22" transform="translate(115.14 396.95)"/>
    <path id="Path_17" data-name="Path 17" class="cls-1" d="M5.88,10.44v.15h.26v.72h.18v-.72h.27v-.15Z" transform="translate(162 402)"/>
    <path id="Path_18" data-name="Path 18" class="cls-1" d="M54.24,16.07c0,.1-.05.16-.17.16a.15.15,0,0,1-.16-.17v-.57h-.18v.58a.33.33,0,0,0,.06.21.37.37,0,0,0,.28.11c.22,0,.36-.1.36-.33v-.57h-.19Z" transform="translate(115.14 396.95)"/>
    <path id="Path_19" data-name="Path 19" class="cls-1" d="M8.45,10.44v.61h0l-.35-.61H7.91v.87h.17v-.62h0l.36.62h.18v-.87Z" transform="translate(162 402)"/>
    <rect id="Rectangle_2" data-name="Rectangle 2" class="cls-1" width="0.18" height="0.88" transform="translate(170.95 412.44)"/>
    <path id="Path_20" data-name="Path 20" class="cls-1" d="M9.4,10.44v.15h.27v.72h.18v-.72h.27v-.15Z" transform="translate(162 402)"/>
    <path id="Path_21" data-name="Path 21" class="cls-1" d="M10.89,10.44l-.17.38-.18-.38h-.22l.3.54v.33h.19v-.33l.29-.54Z" transform="translate(162 402)"/>
    <path id="Path_22" data-name="Path 22" class="cls-1" d="M48.8,8.43l4-2,3.91,2v3.74H48.8Zm4-3.38L46.86,8V9.31h.66V13.4H57.94V9.31h.79V8Z" transform="translate(115.14 396.95)"/>
    <rect id="Rectangle_3" data-name="Rectangle 3" class="cls-1" width="3.65" height="1.32" transform="translate(166.04 405.38)"/>
    <rect id="Rectangle_4" data-name="Rectangle 4" class="cls-1" width="3.65" height="1.32" transform="translate(166.04 407.27)"/>
  </g>
</svg>
