<svg xmlns="http://www.w3.org/2000/svg" width="17" height="16" viewBox="0 0 17 16"><g><g><path fill="#fff" d="M15.085 7.954c0-1.149.094-3.615-.316-4.655a2.66 2.66 0 0 0-1.495-1.5c-1.032-.41-3.492-.318-4.636-.318-1.145 0-3.601-.095-4.637.318a2.66 2.66 0 0 0-1.495 1.5C2.1 4.335 2.19 6.805 2.19 7.954c0 1.148-.094 3.615.316 4.654a2.66 2.66 0 0 0 1.495 1.501c1.032.409 3.492.317 4.637.317 1.144 0 3.6.095 4.636-.317a2.66 2.66 0 0 0 1.495-1.5c.41-1.037.316-3.507.316-4.655zm1.361 3.248c-.063 1.264-.35 2.383-1.27 3.306-.92.926-2.036 1.214-3.296 1.274-1.298.074-5.19.074-6.489 0-1.26-.063-2.372-.352-3.295-1.274-.923-.923-1.211-2.042-1.27-3.306-.074-1.303-.074-5.207 0-6.51.062-1.264.347-2.383 1.27-3.306C3.019.464 4.135.176 5.39.116c1.299-.074 5.19-.074 6.49 0 1.26.063 2.375.352 3.295 1.274.923.922 1.21 2.042 1.27 3.306.074 1.302.074 5.203 0 6.506zm-2.66-7.464a.942.942 0 0 1-.946.944.942.942 0 1 1 0-1.887c.522 0 .946.422.946.943zm-5.148 6.84a2.63 2.63 0 0 0 0-5.26 2.63 2.63 0 0 0 0 5.26zm4.032-2.63a4.032 4.032 0 1 1-8.065 0 4.032 4.032 0 1 1 8.065 0z"/></g></g></svg>